PathFileType	4	(X/Y/Z)	/Users/niels/Desktop/University/Third Semester/Perception and Action/Exam/Gymnastics Motion Tracking/Code for Gym Tracking/Analyzed Data/Webcam_Backflip/id10_2_trajectory_Sports2D/id10_2_trajectory_Sports2D_px_person00.trc
DataRate	CameraRate	NumFrames	NumMarkers	Units	OrigDataRate	OrigDataStartFrame	OrigNumFrames
29.714285714285715	29.714285714285715	9	22	m	29.714285714285715	65	105
Frame#	Time	Hip			RHip			RKnee			RAnkle			RBigToe			RSmallToe			RHeel			LHip			LKnee			LAnkle			LBigToe			LSmallToe			LHeel			Neck			Head			Nose			RShoulder			RElbow			RWrist			LShoulder			LElbow			LWrist		
		X1	Y1	Z1	X2	Y2	Z2	X3	Y3	Z3	X4	Y4	Z4	X5	Y5	Z5	X6	Y6	Z6	X7	Y7	Z7	X8	Y8	Z8	X9	Y9	Z9	X10	Y10	Z10	X11	Y11	Z11	X12	Y12	Z12	X13	Y13	Z13	X14	Y14	Z14	X15	Y15	Z15	X16	Y16	Z16	X17	Y17	Z17	X18	Y18	Z18	X19	Y19	Z19	X20	Y20	Z20	X21	Y21	Z21	X22	Y22	Z22
65	2.1875	0.838605690438689	-0.5691471942560027	0.0	0.836673182836481	-0.5735895665902221	0.0	0.8374735108364503	-0.812286187983904	0.0	0.805097149820988	-1.0395461175189717	0.0	0.8956295352994534	-1.0540747942838273	0.0	0.8723301997282297	-1.061728360999029	0.0	0.7836810544996293	-1.0669788195560286	0.0	0.854207512423377	-0.5726579997895304	0.0	0.8931483736026137	-0.8017344090478377	0.0	0.8968434207746204	-1.0129004749766815	0.0	0.995066634015136	-1.0318344911060966	0.0	0.9761044622376686	-1.0235680881453904	0.0	0.8809484294508647	-1.0441190122761845	0.0	0.8540865092204827	-0.256792018685465	0.0	0.8662027713965373	-0.10530686081959416	0.0	0.917865047441345	-0.17670020342675402	0.0	0.847419564357457	-0.29611191530572417	0.0	0.8674472258340684	-0.47165977715100826	0.0	0.9355848281804648	-0.6067653180784378	0.0	0.8480194568940669	-0.2918551628541649	0.0	0.9092186772021188	-0.4527765570387978	0.0	0.9746251026508157	-0.5688232147562736	0.0
66	2.2211538461538463	0.8398952935688926	-0.5695191977922494	0.0	0.8383224218424419	-0.573972208515559	0.0	0.8388896048873743	-0.8129990064057848	0.0	0.8053326569286678	-1.0395660725894869	0.0	0.8964750512990364	-1.0545883578806452	0.0	0.872117773028194	-1.061738568392048	0.0	0.7839634181175601	-1.0665626724075266	0.0	0.8563048837580811	-0.5731114940019957	0.0	0.8940163360177193	-0.8027866966087038	0.0	0.8972826171663887	-1.0134396394242982	0.0	0.9956433438856295	-1.0326165957490772	0.0	0.9763174081775438	-1.0238671790572835	0.0	0.8817307737420289	-1.044198270473791	0.0	0.8550682306752607	-0.2564682496615166	0.0	0.8669453732492215	-0.10547463081842393	0.0	0.9192276502045545	-0.17688508139269365	0.0	0.84806155923092	-0.295814250254645	0.0	0.8660090335751152	-0.47113203889615335	0.0	0.9336624810155975	-0.6067858217013324	0.0	0.8494938197414994	-0.2917831475622845	0.0	0.9081477616367727	-0.452908369756866	0.0	0.9715265997232578	-0.5711480431107956	0.0
67	2.254807692307692	0.8413519287070107	-0.5696409819918414	0.0	0.840078469015475	-0.5740452300867835	0.0	0.840345935105188	-0.8133730505309763	0.0	0.8056653799032415	-1.0395445699987325	0.0	0.8973426493617651	-1.0555613319487323	0.0	0.8719292821670056	-1.0622348803030233	0.0	0.784092952650722	-1.0660586356187824	0.0	0.858318989238101	-0.573187989466602	0.0	0.8948827755780071	-0.8036357442040333	0.0	0.8974542623342762	-1.013859378902613	0.0	0.9959018423780489	-1.0335584081315663	0.0	0.9761587591184985	-1.0240709335470133	0.0	0.8822237264136128	-1.0440824882245099	0.0	0.8563221552249113	-0.2561479656157543	0.0	0.8681247645039749	-0.10566411227508493	0.0	0.9208048802946782	-0.17741249692547548	0.0	0.8488647554426721	-0.2952087004500983	0.0	0.8645386359808437	-0.47019811147654655	0.0	0.9314340985544444	-0.6063920597318767	0.0	0.850487343676209	-0.291647970429075	0.0	0.9041811393781847	-0.45318758686133204	0.0	0.9663814111969123	-0.5740353181938935	0.0
68	2.2884615384615383	0.843122012816112	-0.5695903161214605	0.0	0.8419595301558294	-0.573924562256431	0.0	0.8416240877591832	-0.8133116494497473	0.0	0.8060690779030217	-1.039332753987582	0.0	0.8980380978113208	-1.0569216243975614	0.0	0.8719977092395386	-1.0632146861146319	0.0	0.7841152555977542	-1.065442789096938	0.0	0.8605312371438059	-0.5729910151708387	0.0	0.8959247339992968	-0.8042354557226243	0.0	0.8973285199146867	-1.0142329149181835	0.0	0.9958963984382815	-1.0346613941291833	0.0	0.9757132836399868	-1.024348463430217	0.0	0.8823051804097315	-1.0438647749710737	0.0	0.8578884689994148	-0.25576126564177926	0.0	0.869647676659419	-0.10587493936325715	0.0	0.92254191285584	-0.17817589912009887	0.0	0.8497671316723282	-0.294488202643726	0.0	0.8632238199588298	-0.4689880241531897	0.0	0.9291230593848027	-0.6058157398613443	0.0	0.8510511524523966	-0.29143293894613437	0.0	0.8968311475750825	-0.4534297613149248	0.0	0.9593232716161465	-0.5767255300119092	0.0
69	2.3221153846153846	0.8453141260633645	-0.5695505775844932	0.0	0.8439926788392494	-0.5738310960235508	0.0	0.8425507499468411	-0.8128775757310371	0.0	0.8064686060033582	-1.03895508917087	0.0	0.8987230483118468	-1.0586846006892099	0.0	0.8726860530824663	-1.0647936834252012	0.0	0.7841187415747889	-1.064907098894119	0.0	0.8631008693923993	-0.5728325075836938	0.0	0.8972736510311318	-0.8046044814078386	0.0	0.8968606459406725	-1.0146265105918595	0.0	0.9956495368378969	-1.0359639921755575	0.0	0.9750384926152591	-1.0249290493266163	0.0	0.8818818491177177	-1.0436383133545295	0.0	0.8597818585518656	-0.2552556803586282	0.0	0.8715506065788194	-0.10610479962150987	0.0	0.9244659294387735	-0.17904676037347012	0.0	0.850828937520189	-0.29385782128650856	0.0	0.8622856670545533	-0.46771197720800123	0.0	0.9269782933100873	-0.6053777962171865	0.0	0.851059619281517	-0.29117846671486564	0.0	0.8854009170362679	-0.4535544048254707	0.0	0.9504237335819777	-0.578705283609554	0.0
70	2.355769230769231	0.8479415637806567	-0.5696929356987913	0.0	0.8462000242660733	-0.5739230930386389	0.0	0.8431349715972154	-0.8123300495336097	0.0	0.8067754513398895	-1.038694155755732	0.0	0.8996416416191642	-1.060885964142311	0.0	0.8741898872619962	-1.067081970361048	0.0	0.7841200226885109	-1.0648155244388195	0.0	0.8660504178338032	-0.5729890944297789	0.0	0.89909852172367	-0.8047306434179187	0.0	0.8960745073618497	-1.0150422570228028	0.0	0.9952711161328828	-1.0374793195916008	0.0	0.9742358495652182	-1.0259570161497507	0.0	0.8809520745312786	-1.0434633102415167	0.0	0.8619667292662991	-0.2546908513065031	0.0	0.873998558429812	-0.10633957137714778	0.0	0.926607551522276	-0.17994311580176264	0.0	0.852133688047176	-0.2934708503693007	0.0	0.8619443342226103	-0.4666307296504063	0.0	0.9252804828336773	-0.6053685844544298	0.0	0.85038213903903	-0.29095572085690163	0.0	0.8696599645504227	-0.4535009890106394	0.0	0.940007879789687	-0.5795189084072748	0.0
71	2.3894230769230766	0.8508808297284255	-0.570046629825958	0.0	0.8485591096470569	-0.5741994189390849	0.0	0.8436141314742673	-0.811940620580728	0.0	0.8069631070331997	-1.0388497315444298	0.0	0.9008266099887515	-1.0633499272093743	0.0	0.8763571146343704	-1.0698623139343717	0.0	0.7840576454965097	-1.0653740128285658	0.0	0.8692780105212718	-0.5734703103822272	0.0	0.9016436945254517	-0.8044700911745134	0.0	0.8951317615230687	-1.0153935655472792	0.0	0.9949616791691913	-1.0391519641561824	0.0	0.9734411849130076	-1.0273836823028077	0.0	0.8796850516606095	-1.043306554973974	0.0	0.864357044183542	-0.2541990017808037	0.0	0.8771150831533866	-0.10657446271049151	0.0	0.9289216228589826	-0.18083300043661954	0.0	0.8537395769953503	-0.2933901956449393	0.0	0.8623411792462137	-0.46596734762549086	0.0	0.9243212891565598	-0.6059950812451206	0.0	0.8491239485941988	-0.29079914674099094	0.0	0.8507204916387208	-0.4532105217340406	0.0	0.928777194077026	-0.5788482814546817	0.0
72	2.423076923076923	0.8538918701932704	-0.5704345262590245	0.0	0.8509532218892426	-0.5744694676554473	0.0	0.8443432185667299	-0.8116738645569175	0.0	0.8071117910754912	-1.039352682926841	0.0	0.9020363157911243	-1.0655478242291512	0.0	0.8787486317266334	-1.0724315602305567	0.0	0.7839378593119555	-1.0663107631767204	0.0	0.8725872804098768	-0.5739764686767189	0.0	0.9051810184959473	-0.8035633441441199	0.0	0.8942906268931986	-1.0154909385879727	0.0	0.9948731274835453	-1.0407928799220512	0.0	0.9727815908730642	-1.028913387048276	0.0	0.8783893932908203	-1.042967051565664	0.0	0.8668733322257386	-0.25392947438621555	0.0	0.880882634873901	-0.10682756193764184	0.0	0.9313246103329968	-0.18171264826954708	0.0	0.8556677933883524	-0.2936123615453223	0.0	0.863526013060537	-0.4658765721972552	0.0	0.9244048153629429	-0.6074104060802351	0.0	0.8479402652344169	-0.2907059263528415	0.0	0.8317537489673955	-0.45274975639924464	0.0	0.91796568360815	-0.5770700082695791	0.0
73	2.456730769230769	0.8567389843482819	-0.5705963700814511	0.0	0.8532508494628137	-0.5744840113382469	0.0	0.8455785736056011	-0.8112044809708083	0.0	0.8073414820862769	-1.0397297478108964	0.0	0.9029313998342157	-1.0668403794700427	0.0	0.8809046299570589	-1.0740087796392028	0.0	0.783900836664504	-1.0669974639386022	0.0	0.875838979147593	-0.5741391853026879	0.0	0.9099022359394623	-0.8017992092268107	0.0	0.8938552653243357	-1.0150969129271727	0.0	0.9950214901338003	-1.0421131631606422	0.0	0.9724288350123034	-1.0301569806415827	0.0	0.877427586159477	-1.0421581891044145	0.0	0.8695222503819522	-0.2539889165581954	0.0	0.8851808946748323	-0.10714599219789658	0.0	0.9338150942041279	-0.18262251604337676	0.0	0.8579077008223229	-0.29411325868471483	0.0	0.8655772563070713	-0.46647244263257787	0.0	0.9258139150819701	-0.6096925655825034	0.0	0.8478626355069131	-0.2906981430104619	0.0	0.8169473908751488	-0.45235191264000585	0.0	0.9090687252191191	-0.5752470755105286	0.0
